<svg width="546" height="546" id="chaSvgSave"><g width="546" height="546" transform="translate(37.31910000000002,37.31910000000002), scale(1,1)" id="chaSvgClip"><g width="546" height="546" id="chaSvgMake" transform="translate(0, 0) scale(1,1)"><g id="lcart_chara" paramParts="" paramTx="0" paramTy="0" paramScx="0.9427235999999999" paramScy="0.9427235999999999" paramRev="0" paramScale="1" paramCol="" paramColFrom="" paramColTo="" paramColLFrom="" paramColLTo="" paramColRFrom="" paramColRTo="" paramPtn="" paramPrev="0" paramPtnMode="0" paramSW="" transform="translate(0, 0), scale(0.9427235999999999,0.9427235999999999)"></g><g id="lcart_ef_r" paramParts="1" paramTx="0" paramTy="0" paramScx="0.9427235999999999" paramScy="0.9427235999999999" paramRev="0" paramScale="1" paramCol="" paramColFrom="" paramColTo="" paramColLFrom="" paramColLTo="" paramColRFrom="" paramColRTo="" paramPtn="" paramPrev="0" paramPtnMode="0" paramSW="3" transform="translate(0, 0), scale(0.9427235999999999,0.9427235999999999)"><g id="x001" transform="translate(0, 0), scale(1, 1)"></g></g><g id="lcart_wing_r" paramParts="1" paramTx="0" paramTy="0" paramScx="0.9427235999999999" paramScy="0.9427235999999999" paramRev="0" paramScale="1" paramCol="" paramColFrom="" paramColTo="" paramColLFrom="" paramColLTo="" paramColRFrom="" paramColRTo="" paramPtn="" paramPrev="0" paramPtnMode="0" paramSW="3" transform="translate(0, 0), scale(0.9427235999999999,0.9427235999999999)"><g id="x001" transform="translate(0, 0), scale(1, 1)"></g></g><g id="lcart_right" paramParts="" paramTx="0" paramTy="0" paramScx="0.9427235999999999" paramScy="0.9427235999999999" paramRev="0" paramScale="1" paramCol="" paramColFrom="" paramColTo="" paramColLFrom="" paramColLTo="" paramColRFrom="" paramColRTo="" paramPtn="" paramPrev="0" paramPtnMode="0" paramSW="" transform="translate(0, 0), scale(0.9427235999999999,0.9427235999999999)"></g><g id="lcart_hair3" paramParts="31" paramTx="0" paramTy="-1" paramScx="0.9427235999999999" paramScy="0.9427235999999999" paramRev="0" paramScale="1" paramCol="" paramColFrom="" paramColTo="" paramColLFrom="" paramColLTo="" paramColRFrom="" paramColRTo="" paramPtn="" paramPrev="0" paramPtnMode="0" paramSW="3" transform="translate(0, -0.9427236318588257) scale(0.9427236318588257,0.9427236318588257)"><g id="x031" transform="translate(0, 0) scale(1,1)"><g><g><path style="fill: rgb(63, 63, 63); stroke: rgb(102, 102, 102); stroke-width: 3; stroke-linecap: round; stroke-linejoin: round; stroke-miterlimit: 10;" d="M168.528,211.241c0,0-10.765,40.238,4.758,121.454c-18.137-52.548-19.529-97.065-6.871-163.415" orgb="" ostroke=""></path><path style="fill: rgb(63, 63, 63); stroke: rgb(102, 102, 102); stroke-width: 3; stroke-linecap: round; stroke-linejoin: round; stroke-miterlimit: 10;" d="M195.917,223.574c3.061-42.664,9.423-91.277,4.335-94.225c-12.102-7.015-23.801,1.613-29.703,11.876c-5.901,10.265-9.6,47.719-1.731,90.373c11.472,62.188-33.186,163.986,14.783,188.115c-20.724-21.973-13.766-64.064-5.98-101.077C181.479,300.301,192.913,265.448,195.917,223.574z" orgb="" ostroke=""></path><path style="fill: rgb(63, 63, 63); stroke: rgb(102, 102, 102); stroke-width: 3; stroke-linecap: round; stroke-linejoin: round; stroke-miterlimit: 10;" d="M181.349,293.802c-7.083,34.984-11.444,79.518,5.79,99.791c-11.076-7.933-18.575-21.376-19.774-48.688" orgb="" ostroke=""></path></g><g><path style="fill: rgb(63, 63, 63); stroke: rgb(102, 102, 102); stroke-width: 3; stroke-linecap: round; stroke-linejoin: round; stroke-miterlimit: 10;" d="M335.709,204.33c0,0,11.91,39.913-1.286,121.54c16.628-53.045,16.747-97.584,2.198-163.545" orgb="" ostroke=""></path><path style="fill: rgb(63, 63, 63); stroke: rgb(102, 102, 102); stroke-width: 3; stroke-linecap: round; stroke-linejoin: round; stroke-miterlimit: 10;" d="M308.683,217.441c-4.278-42.559-12.027-90.97-7.026-94.063c11.896-7.357,23.838,0.932,30.029,11.023c6.192,10.092,10.961,47.425,4.314,90.286c-9.689,62.49,37.858,162.971-9.401,188.461c20.088-22.556,11.93-64.432,3.089-101.206C325.308,293.724,312.882,259.212,308.683,217.441z" orgb="" ostroke=""></path><path style="fill: rgb(63, 63, 63); stroke: rgb(102, 102, 102); stroke-width: 3; stroke-linecap: round; stroke-linejoin: round; stroke-miterlimit: 10;" d="M325.252,287.224c8.08,34.768,13.713,79.158-2.936,99.915c10.846-8.245,17.957-21.897,18.374-49.233" orgb="" ostroke=""></path></g></g></g></g><g id="lcart_hat_r" paramParts="1" paramTx="0" paramTy="0" paramScx="0.9427235999999999" paramScy="0.9427235999999999" paramRev="0" paramScale="1" paramCol="" paramColFrom="" paramColTo="" paramColLFrom="" paramColLTo="" paramColRFrom="" paramColRTo="" paramPtn="" paramPrev="0" paramPtnMode="0" paramSW="3" transform="scale(0.9427236318588257,0.9427236318588257)"><g id="x001" transform="translate(0, 0) scale(1,1)"></g></g><g id="lcart_hat2_r" paramParts="" paramTx="0" paramTy="0" paramScx="0.9427235999999999" paramScy="0.9427235999999999" paramRev="0" paramScale="1" paramCol="" paramColFrom="" paramColTo="" paramColLFrom="" paramColLTo="" paramColRFrom="" paramColRTo="" paramPtn="" paramPrev="0" paramPtnMode="0" paramSW="" transform="translate(0, 0), scale(0.9427235999999999,0.9427235999999999)"></g><g id="lcart_hair2" paramParts="2" paramTx="0" paramTy="0" paramScx="0.9427235999999999" paramScy="0.9427235999999999" paramRev="0" paramScale="1" paramCol="" paramColFrom="" paramColTo="" paramColLFrom="" paramColLTo="" paramColRFrom="" paramColRTo="" paramPtn="" paramPrev="0" paramPtnMode="0" paramSW="3" transform="scale(0.9427236318588257,0.9427236318588257)"><g id="x002" transform="translate(0, 0) scale(1,1)"><g><path style="fill: rgb(63, 63, 63); stroke: rgb(102, 102, 102); stroke-width: 3; stroke-linecap: round; stroke-linejoin: round; stroke-miterlimit: 10;" d="M324.986,175.515c0.009-0.249,0.014-0.435,0.014-0.515l-0.089,0.015c-1.828-12.121-4.246-24.794-8.914-30.87C315.561,143.424,295,98,234.667,114.333c-33.284,9.011-55.333,33.833-56.667,66.167c0.006,0.509,1,18.5,11.5,31c0.212,0.035,0.417,0.059,0.628,0.091c4.9,39.574,35.759,64.107,48.372,65.909c-2-6.5-4-15.5-2-21C238.5,270,256,277,256,277l8-22.5c0,0,6,5,12.5,15c13-12,18.5-34.5,18.5-34.5s4,14,7.5,29c0-3.5,13.5-28.5,16.5-43.5C328,201,325.341,177.885,324.986,175.515z" orgb="" ostroke=""></path></g></g></g><g id="lcart_wing_f" paramParts="" paramTx="0" paramTy="0" paramScx="0.9427235999999999" paramScy="0.9427235999999999" paramRev="0" paramScale="1" paramCol="" paramColFrom="" paramColTo="" paramColLFrom="" paramColLTo="" paramColRFrom="" paramColRTo="" paramPtn="" paramPrev="0" paramPtnMode="0" paramSW="" transform="translate(0, 0), scale(0.9427235999999999,0.9427235999999999)"></g><g id="lcart_outer_r" paramParts="13" paramTx="0" paramTy="0" paramScx="0.9427235999999999" paramScy="0.9427235999999999" paramRev="0" paramScale="1" paramCol="" paramColFrom="" paramColTo="" paramColLFrom="" paramColLTo="" paramColRFrom="" paramColRTo="" paramPtn="" paramPrev="0" paramPtnMode="0" paramSW="3" transform="scale(0.9427236318588257,0.9427236318588257)"><g id="x013" transform="translate(0, 0) scale(1,1)"><path style="fill:#3F3F3F;stroke:#666666;stroke-width:3;stroke-linecap:round;stroke-linejoin:round;stroke-miterlimit:10;" d="M210.333,369c0,0,14.662,8.206,40,8.667c36.667,0.667,60-10,60-10l-19.334-116l34-27.333c0,0-12-73.333-14-76s-24.666-22.667-59.333-20s-67.333,36-67.333,36l6,72.667L231,259L210.333,369z"></path></g></g><g id="lcart_body_r" paramParts="1" paramTx="0" paramTy="0" paramScx="0.9427235999999999" paramScy="0.9427235999999999" paramRev="0" paramScale="1" paramCol="" paramColFrom="" paramColTo="" paramColLFrom="" paramColLTo="" paramColRFrom="" paramColRTo="" paramPtn="" paramPrev="0" paramPtnMode="0" paramSW="3" transform="translate(0, 0), scale(0.9427235999999999,0.9427235999999999)"><g id="x001" transform="translate(0, 0), scale(1, 1)"><g><path style="fill:#FFFAFA;stroke:#DBB3B5;stroke-width:3;stroke-linecap:round;stroke-linejoin:round;stroke-miterlimit:10;" d="M245.5,264.75c-15.819,7.285-38.259,43.233-52.833,73.25L208,343c14-27,34.08-52.306,37.75-62.5C247.5,272.25,249,264,245.5,264.75z"></path><path style="fill:#FFFAFA;stroke:#DBB3B5;stroke-width:3;stroke-linecap:round;stroke-linejoin:round;stroke-miterlimit:10;" d="M207.182,339.668c0,0,2.668,13.334,0.334,16s-4.668-5-6.334-5s-14.666,8.333-18.666,7.333c-2.334-0.667,4.332-15.667,11.666-23"></path></g></g></g><g id="lcart_bodypaint_r" paramParts="" paramTx="0" paramTy="0" paramScx="0.9427235999999999" paramScy="0.9427235999999999" paramRev="0" paramScale="1" paramCol="" paramColFrom="" paramColTo="" paramColLFrom="" paramColLTo="" paramColRFrom="" paramColRTo="" paramPtn="" paramPrev="0" paramPtnMode="0" paramSW="" transform="translate(0, 0), scale(0.9427235999999999,0.9427235999999999)"><g id="x001" transform="translate(0, 0), scale(1, 1)"></g></g><g id="lcart_arm_r" paramParts="15" paramTx="0" paramTy="0" paramScx="0.9427235999999999" paramScy="0.9427235999999999" paramRev="0" paramScale="1" paramCol="" paramColFrom="" paramColTo="" paramColLFrom="" paramColLTo="" paramColRFrom="" paramColRTo="" paramPtn="" paramPrev="0" paramPtnMode="0" paramSW="3" transform="translate(0, 0), scale(0.9427235999999999,0.9427235999999999)"><g id="x015" transform="translate(0, 0), scale(1, 1)"><path style="fill:#3F3F3F;stroke:#666666;stroke-width:3;stroke-linecap:round;stroke-linejoin:round;stroke-miterlimit:10;" d="M216.768,335.793c-1.572,1.763-3.933,4.536-3.933,4.536s1.227,2.843-0.582,3.577c-1.81,0.733-4.898,1.441-4.898,1.441s-2.23-3.888-4.266-4.696c-2.036-0.811-4.14,1.969-6.416,0.387c-2.277-1.583-4.793-3.939-4.793-3.939s-3.537-2.631-3.497-4.682c0.04-2.05,3.643-2.747,3.667-4.028c0.025-1.282-1.427-5.666,0.121-6.149c1.547-0.483,4.111-0.434,5.873,1.141c1.733,3.109,3.181,4.191,6.557,5.511c4.833,1.888,8.946,1.199,8.946,1.199S218.34,334.029,216.768,335.793z"></path></g></g><g id="lcart_tops_r" paramParts="16" paramTx="0" paramTy="0" paramScx="0.9427235999999999" paramScy="0.9427235999999999" paramRev="0" paramScale="1" paramCol="" paramColFrom="" paramColTo="" paramColLFrom="" paramColLTo="" paramColRFrom="" paramColRTo="" paramPtn="" paramPrev="0" paramPtnMode="0" paramSW="3" transform="scale(0.9427236318588257,0.9427236318588257)"></g><g id="lcart_left_r" paramParts="" paramTx="0" paramTy="0" paramScx="0.9427235999999999" paramScy="0.9427235999999999" paramRev="0" paramScale="1" paramCol="" paramColFrom="" paramColTo="" paramColLFrom="" paramColLTo="" paramColRFrom="" paramColRTo="" paramPtn="" paramPrev="0" paramPtnMode="0" paramSW="" transform="scale(0.9427236318588257,0.9427236318588257)"><g id="x001" transform="translate(0, 0), scale(1, 1)"></g></g><g id="lcart_body_f" paramParts="" paramTx="0" paramTy="0" paramScx="0.9427235999999999" paramScy="0.9427235999999999" paramRev="0" paramScale="1" paramCol="" paramColFrom="" paramColTo="" paramColLFrom="" paramColLTo="" paramColRFrom="" paramColRTo="" paramPtn="" paramPrev="0" paramPtnMode="0" paramSW="" transform="translate(0, 0), scale(0.9427235999999999,0.9427235999999999)"><g id="a001" transform="translate(0, 0), scale(1, 1)"><g><g><g><path style="fill:#FFFAFA;stroke:#DBB3B5;stroke-width:3;stroke-linecap:round;stroke-linejoin:round;stroke-miterlimit:10;" d="M296.27,416.714c-3.02-12.464-14.815-48.42-13.77-60.714c1-11.75-2.475-26.893-5.932-32.058c-0.169-7.144,1.248-28.366,5.701-34.729c4.667-6.666,16.392-8.197,15.897-13.881C297.5,267.666,289,257.75,289,257.75c-8-8-15.397-9.535-15.397-9.535v-8.001l-18.333,10.333c0,0-10.077,6.437-21,21.333c-14.02,19.119-25.666,61-25.333,79.333s4.666,63,7.333,77.667c1.523,8.38,3.546,14.425,6.5,17.333c2.627,1.713,5.119,2.286,7.834,2c6.333-0.667,6.666-4.333,6.666-4.333s-0.666-14.667,0.334-21.667s6.666-40,6.666-58c0-2.931,0.063-5.905,0.166-8.832c1.74,9.808,6.564,16.618,12.898,31.951c10.931,26.46,21.936,57.881,24.936,59.881s10.332,1.5,13-1.333C297.937,440.214,298.615,426.396,296.27,416.714z"></path><line style="fill:none;stroke:#DBB3B5;stroke-width:3;stroke-linecap:round;stroke-linejoin:round;stroke-miterlimit:10;" x1="273.667" y1="243" x2="273.667" y2="250.333"></line><path style="fill: rgb(219, 179, 181); stroke-width: 3;" d="M268.333,244.583c-4.577,2.747-5.253,3.464-12.416,6c-0.459,0.162,0.87,2.281,0.353,2.463c0,0.5,3.666-0.833,7.333-2.166c3.161-1.149,7.234-3.441,10.647-2.452v-6.462C272.813,242.358,270.782,243.114,268.333,244.583z"></path><g><path style="fill:none;stroke:#DBB3B5;stroke-width:3;stroke-linecap:round;stroke-linejoin:round;stroke-miterlimit:10;" d="M230,345.334c0,0,6,4.666,14.437,9.213"></path></g></g><path style="fill:#FFFAFA;stroke:#DBB3B5;stroke-width:3;stroke-linecap:round;stroke-linejoin:round;stroke-miterlimit:10;" d="M277.75,282.5c0,0,12.917,34.167,23.917,62.834l14.804-3.486c-5.612-22.943-15.371-63.181-20.435-73.634"></path><path style="fill:#FFFAFA;stroke:#DBB3B5;stroke-width:3;stroke-linecap:round;stroke-linejoin:round;stroke-miterlimit:10;" d="M301.348,343.765c0,0-2.914,14.564-0.365,17.476c2.55,2.912,5.099-5.461,6.919-5.461c1.819,0,16.019,9.102,20.388,8.01c2.55-0.729-4.731-17.112-12.742-25.122"></path><path style="fill:none;stroke:#DBB3B5;stroke-width:3;stroke-linecap:round;stroke-linejoin:round;stroke-miterlimit:10;" d="M255.27,251.215c0,0,1.333,4.333-1.334,8.333"></path></g><line style="fill:none;stroke:#DBB3B5;stroke-width:3;stroke-linecap:round;stroke-linejoin:round;stroke-miterlimit:10;" x1="240.05" y1="318.25" x2="240.05" y2="318.602"></line></g></g></g><g id="lcart_bodypaint_f" paramParts="1" paramTx="0" paramTy="0" paramScx="0.9427235999999999" paramScy="0.9427235999999999" paramRev="0" paramScale="1" paramCol="" paramColFrom="" paramColTo="" paramColLFrom="" paramColLTo="" paramColRFrom="" paramColRTo="" paramPtn="" paramPrev="0" paramPtnMode="0" paramSW="3" transform="translate(0, 0), scale(0.9427235999999999,0.9427235999999999)"></g><g id="lcart_arm_f" paramParts="" paramTx="0" paramTy="0" paramScx="0.9427235999999999" paramScy="0.9427235999999999" paramRev="0" paramScale="1" paramCol="" paramColFrom="" paramColTo="" paramColLFrom="" paramColLTo="" paramColRFrom="" paramColRTo="" paramPtn="" paramPrev="0" paramPtnMode="0" paramSW="" transform="translate(0, 0), scale(0.9427235999999999,0.9427235999999999)"><g id="a015" transform="translate(0, 0), scale(1, 1)"><path style="fill:#3F3F3F;stroke:#666666;stroke-width:3;stroke-linecap:round;stroke-linejoin:round;stroke-miterlimit:10;" d="M293.747,339.205c1.226,2.019,3.044,5.175,3.044,5.175s-1.723,2.572-0.077,3.623c1.646,1.05,4.555,2.307,4.555,2.307s2.899-3.418,5.048-3.844c2.148-0.427,3.713,2.688,6.238,1.546c2.526-1.144,5.429-3.004,5.429-3.004s3.956-1.945,4.289-3.969s-3.083-3.363-2.875-4.627c0.208-1.266,2.432-5.313,0.998-6.069c-1.434-0.757-3.964-1.173-5.982,0.055c-2.27,2.743-3.89,3.544-7.448,4.229c-5.096,0.979-9.016-0.444-9.016-0.444S292.521,337.185,293.747,339.205z"></path></g></g><g id="lcart_socks_r" paramParts="1" paramTx="0" paramTy="0" paramScx="0.9427235999999999" paramScy="0.9427235999999999" paramRev="0" paramScale="1" paramCol="" paramColFrom="" paramColTo="" paramColLFrom="" paramColLTo="" paramColRFrom="" paramColRTo="" paramPtn="" paramPrev="0" paramPtnMode="0" paramSW="3" transform="scale(0.9427236318588257,0.9427236318588257)"><g id="x001" transform="translate(0, 0), scale(1, 1)"></g></g><g id="lcart_shoes" paramParts="9" paramTx="0" paramTy="0" paramScx="0.9427235999999999" paramScy="0.9427235999999999" paramRev="0" paramScale="1" paramCol="" paramColFrom="" paramColTo="" paramColLFrom="" paramColLTo="" paramColRFrom="" paramColRTo="" paramPtn="" paramPrev="1" paramPtnMode="0" paramSW="3" transform="scale(0.9427236318588257,0.9427236318588257)"><g id="x009" transform="translate(0, 0) scale(1,1)"><g><path style="fill: rgb(255, 255, 255); stroke: rgb(199, 217, 232); stroke-width: 3; stroke-linecap: round; stroke-linejoin: round; stroke-miterlimit: 10;" d="M298.303,436.104l1.004-23.374l-2.597-2.146l-1.312,1.787c0,0-1.148,2.129-12.748,3.954c-10.24,1.611-14.347-0.477-14.347-0.477l-0.714-2.265c0,0-1.311,2.264-1.43,3.455c-0.119,1.192,8.289,15.73,9.361,17.755c0.231,1.116,0.723,2.771,1.328,4.539h22.016C298.574,437.485,298.303,436.104,298.303,436.104z" orgb="rgb(63, 63, 63)" ostroke="rgb(102, 102, 102)"></path><path style="fill: rgb(255, 255, 255); stroke: rgb(199, 217, 232); stroke-width: 3; stroke-linecap: round; stroke-linejoin: round; stroke-miterlimit: 10;" d="M299.57,439.333c-1.269,3.703-1.042,7.918-2.01,8.806c-1.43,1.312-18.204,1.191-20.587-0.238c-0.36-1.803,0.135-5.736,0.581-8.567H299.57z" orgb="rgb(63, 63, 63)" ostroke="rgb(102, 102, 102)"></path><path style="fill: rgb(255, 255, 255); stroke: rgb(199, 217, 232); stroke-width: 3; stroke-linecap: round; stroke-linejoin: round; stroke-miterlimit: 10;" d="M266.756,421.926c0,0,0.597,3.336,1.311,3.692c0.716,0.357,5.123,0,5.123,0s0.072-3.575-0.286-3.813C272.546,421.568,266.756,421.926,266.756,421.926z" orgb="rgb(63, 63, 63)" ostroke="rgb(102, 102, 102)"></path><path style="fill: rgb(255, 255, 255); stroke: rgb(199, 217, 232); stroke-width: 3; stroke-linecap: round; stroke-linejoin: round; stroke-miterlimit: 10;" d="M300.954,417.926c0,0-0.421,3.336-0.928,3.692c-0.505,0.357-2.409,0.285-2.409,0.285s-0.05-3.576,0.201-3.813C298.072,417.853,300.954,417.926,300.954,417.926z" orgb="rgb(63, 63, 63)" ostroke="rgb(102, 102, 102)"></path><path style="fill: rgb(255, 255, 255); stroke: rgb(199, 217, 232); stroke-width: 3; stroke-linecap: round; stroke-linejoin: round; stroke-miterlimit: 10;" d="M277.001,443.3c0,0,1.393-1.951,2.231-2.429c0.838-0.478,17.217-1.477,17.937-1.357c0.719,0.118,2.277,2.263,2.277,2.263s-0.24-3.099-0.599-3.574c-0.359-0.476-1.247-1.668-1.967-1.668c-0.719,0-17.289,1.356-17.648,1.356s-2.639,1.79-2.757,2.623C276.356,441.347,277.001,443.3,277.001,443.3z" orgb="rgb(63, 63, 63)" ostroke="rgb(102, 102, 102)"></path><path style="fill: rgb(255, 255, 255); stroke: rgb(199, 217, 232); stroke-width: 3; stroke-linecap: round; stroke-linejoin: round; stroke-miterlimit: 10;" d="M280.525,441.465c-0.179,0.061-1.31-3.752-1.013-4.05c0.298-0.298,2.146-0.656,2.384-0.418c0.238,0.239,1.191,3.812,0.953,4.111C282.611,441.407,280.525,441.465,280.525,441.465z" orgb="rgb(63, 63, 63)" ostroke="rgb(102, 102, 102)"></path></g><g><path style="fill: rgb(255, 255, 255); stroke: rgb(199, 217, 232); stroke-width: 3; stroke-linecap: round; stroke-linejoin: round; stroke-miterlimit: 10;" d="M212.59,413.584c0,0-1.311,2.264-1.43,3.455c-0.119,1.192,4.289,15.73,5.361,17.755c0.715,3.454,1.907,12.033,3.338,13.345c1.43,1.312,16.204,1.191,18.587-0.238c0.595-2.979-1.144-11.797-1.144-11.797l4.004-20.374l-0.597-2.146l-1.312,1.787c0,0-2.382,0.954-12.748,0.954s-13.347-0.477-13.347-0.477L212.59,413.584z" orgb="rgb(63, 63, 63)" ostroke="rgb(102, 102, 102)"></path><path style="fill: rgb(255, 255, 255); stroke: rgb(199, 217, 232); stroke-width: 3; stroke-linecap: round; stroke-linejoin: round; stroke-miterlimit: 10;" d="M211.756,421.926c0,0,0.597,3.336,1.311,3.692c0.716,0.357,5.123,0,5.123,0s0.072-3.575-0.286-3.813C217.546,421.568,211.756,421.926,211.756,421.926z" orgb="rgb(63, 63, 63)" ostroke="rgb(102, 102, 102)"></path><path style="fill: rgb(255, 255, 255); stroke: rgb(199, 217, 232); stroke-width: 3; stroke-linecap: round; stroke-linejoin: round; stroke-miterlimit: 10;" d="M240.954,421.926c0,0-0.421,3.336-0.928,3.692c-0.505,0.357-2.409,0.285-2.409,0.285s-0.05-3.576,0.201-3.813C238.072,421.853,240.954,421.926,240.954,421.926z" orgb="rgb(63, 63, 63)" ostroke="rgb(102, 102, 102)"></path><path style="fill: rgb(255, 255, 255); stroke: rgb(199, 217, 232); stroke-width: 3; stroke-linecap: round; stroke-linejoin: round; stroke-miterlimit: 10;" d="M218.001,443.3c0,0,1.393-1.951,2.231-2.429c0.838-0.478,15.217-0.477,15.937-0.357c0.719,0.118,2.277,2.263,2.277,2.263s-0.24-3.099-0.599-3.574c-0.359-0.476-1.247-1.668-1.967-1.668c-0.719,0-15.289,0.356-15.648,0.356s-2.639,1.79-2.757,2.623C217.356,441.347,218.001,443.3,218.001,443.3z" orgb="rgb(63, 63, 63)" ostroke="rgb(102, 102, 102)"></path><path style="fill: rgb(255, 255, 255); stroke: rgb(199, 217, 232); stroke-width: 3; stroke-linecap: round; stroke-linejoin: round; stroke-miterlimit: 10;" d="M221.525,441.465c-0.179,0.061-1.31-3.752-1.013-4.05c0.298-0.298,2.146-0.656,2.384-0.418c0.238,0.239,1.191,3.812,0.953,4.111C223.611,441.407,221.525,441.465,221.525,441.465z" orgb="rgb(63, 63, 63)" ostroke="rgb(102, 102, 102)"></path></g></g></g><g id="lcart_socks_f" paramParts="" paramTx="0" paramTy="0" paramScx="0.9427235999999999" paramScy="0.9427235999999999" paramRev="0" paramScale="1" paramCol="" paramColFrom="" paramColTo="" paramColLFrom="" paramColLTo="" paramColRFrom="" paramColRTo="" paramPtn="" paramPrev="0" paramPtnMode="0" paramSW="" transform="scale(0.9427236318588257,0.9427236318588257)"></g><g id="lcart_bottoms" paramParts="11" paramTx="0" paramTy="0" paramScx="0.9427235999999999" paramScy="0.9427235999999999" paramRev="0" paramScale="1" paramCol="" paramColFrom="" paramColTo="" paramColLFrom="" paramColLTo="" paramColRFrom="" paramColRTo="" paramPtn="" paramPrev="0" paramPtnMode="0" paramSW="3" transform="scale(0.9427236318588257,0.9427236318588257)"><g id="x011" transform="translate(0, 0) scale(1,1)"><g><path style="fill:#3F3F3F;stroke:#666666;stroke-width:3;stroke-linecap:round;stroke-linejoin:round;stroke-miterlimit:10;" d="M224,291.666c0-1-1-6-0.333-7.333s31.999-3.167,58.333,5.167c-0.334,5.333-1.334,11.5-1.334,11.5s8.668,22.001,10.334,33.334s14.332,24,20.666,30c-5,0-11.666-4.334-11.666-4.334s4.332,7.667,0.666,7.667s-12-4.666-13-6.333c0.668,4-9.666,11.667-12.332,10c-2.668-1.667-12.334-7.667-12.334-8.667s-1,6.999-3,6.333s-4.666-6-4.666-6s-11,8-16.667,6s-8-9.333-8-9.333s-2.334,6.667-4.667,5s0-7.333,0-7.333s-18.333,11.334-20.333,7s3-14.667,3-14.667s-8,5.667-8.667,4s5-8,5-8s-12.333,2.001-14.667-2.333C204.333,333.334,224,291.666,224,291.666z"></path><g><path style="fill:none;stroke:#666666;stroke-width:3;stroke-linecap:round;stroke-linejoin:round;stroke-miterlimit:10;" d="M231.285,314.544c0,0,16.195-6.475,30.429-9.087"></path><path style="fill:none;stroke:#666666;stroke-width:3;stroke-linecap:round;stroke-linejoin:round;stroke-miterlimit:10;" d="M260.868,316.759c0,0-15.05-8.814-28.737-13.517"></path></g><g><path style="fill:none;stroke:#666666;stroke-width:3;stroke-linecap:round;stroke-linejoin:round;stroke-miterlimit:10;" d="M229.551,331.21c0,0,16.195-6.475,30.432-9.087"></path><path style="fill:none;stroke:#666666;stroke-width:3;stroke-linecap:round;stroke-linejoin:round;stroke-miterlimit:10;" d="M259.137,333.425c0,0-15.052-8.814-28.739-13.517"></path></g></g></g></g><g id="lcart_tops_f" paramParts="" paramTx="0" paramTy="0" paramScx="0.9427235999999999" paramScy="0.9427235999999999" paramRev="0" paramScale="1" paramCol="" paramColFrom="" paramColTo="" paramColLFrom="" paramColLTo="" paramColRFrom="" paramColRTo="" paramPtn="" paramPrev="0" paramPtnMode="0" paramSW="" transform="scale(0.9427236318588257,0.9427236318588257)"><g id="a016" transform="translate(0, 0) scale(1,1)"><path style="fill:#3F3F3F;stroke:#666666;stroke-width:3;stroke-linecap:round;stroke-linejoin:round;stroke-miterlimit:10;" d="M284.646,279.293l2.88-3.589c0,0-2.718-3.682-4.851-5.895c-2.132-2.215-7.502,0.185-7.502,0.185s-2.185-1.709-3.946-3.276c-1.761-1.566-8.966,0.854-8.966,0.854s-0.316-0.314-3.428-2.138c-1.596-0.934-7.048,1.236-9.646,1.229c-3.444-1.804-5.094-2.041-5.094-2.041l-5.281,1.643l-3.328,0.192c0,0-5.24-1.114-5.823,0.34c-0.583,1.452,1.069,4.027,1.069,4.027c-5.08,7.39-4.243,13.184-4.243,13.184l-3.211,2.19c0,0,2.523,3.193,4.891,3.723s6.284-1.032,6.284-1.032s2.739,1.177,4.442,1.745c1.703,0.569,7.263-1.424,7.263-1.424s4.442,1.746,6.439,1.63c1.996-0.116,5.011,0.043,5.011,0.043s3.661-0.213,5.715,0.669c2.056,0.883,5.695,0.338,5.695,0.338s5.325-0.31,6.733,0.944c1.408,1.253,6.086,1.316,9.376,0.456l-1.669-5.746L284.646,279.293z M259.387,280.314c-0.471,4.152-3.919,4.399-6.424,4.379c-2.506-0.021-9.718-0.604-9.718-0.604s-3.287-1.979-3-5.668c0.287-3.689,4.909-7.464,5.261-7.15c0.353,0.313,1.671,2.908,1.671,2.908l6.695,0.278l3.367-2.366C257.238,272.091,259.938,275.44,259.387,280.314z"></path></g></g><g id="lcart_outer_f" paramParts="" paramTx="0" paramTy="0" paramScx="0.9427235999999999" paramScy="0.9427235999999999" paramRev="0" paramScale="1" paramCol="" paramColFrom="" paramColTo="" paramColLFrom="" paramColLTo="" paramColRFrom="" paramColRTo="" paramPtn="" paramPrev="0" paramPtnMode="0" paramSW="" transform="scale(0.9427236318588257,0.9427236318588257)"><g id="a013" transform="translate(0, 0) scale(1,1)"><path style="fill:#3F3F3F;stroke:#666666;stroke-width:3;stroke-linecap:round;stroke-linejoin:round;stroke-miterlimit:10;" d="M227.5,261.5c0,0-14.5,12-17,18c-1.308,3.138-6.5,15-18,33C174,325.5,172,330,172,330s5,22,27.5,26c25.5-46,39.5-89.5,39.5-89.5L227.5,261.5z"></path><path style="fill:#3F3F3F;stroke:#666666;stroke-width:3;stroke-linecap:round;stroke-linejoin:round;stroke-miterlimit:10;" d="M242.5,272.5c0,0-12,37-13,43.5s-13,44-13,44s-2,10.5-3.5,15c-2.5,0.5-20-11-21.5-16c2-4.5,6-10,6-10s-3-5.5-2.5-14c3-5.5,11-22,17.5-31.5s13-34.5,17.5-39C236.5,268,242.5,272.5,242.5,272.5z"></path><path style="fill:#3F3F3F;stroke:#666666;stroke-width:3;stroke-linecap:round;stroke-linejoin:round;stroke-miterlimit:10;" d="M259.5,274c0,0,6.5,30.5,7,45s18.5,42.5,18.5,42.5s4,12,5.5,14c11.5,0.5,36.5-8,44-15.5c-1.5-5.5-4.5-11.5-4.5-11.5s3-10.5,3-15s-18.5-16.5-24-24S292.5,257,292.5,257L259.5,274z"></path><polygon style="fill:#FFFFFF;stroke:#C7D9E8;stroke-width:3;stroke-linecap:round;stroke-linejoin:round;stroke-miterlimit:10;" points="268.75,291.501 267.5,285.834 285.25,282.501 286.632,288.333 "></polygon><g><path style="fill:#3F3F3F;stroke:#666666;stroke-width:3;stroke-linecap:round;stroke-linejoin:round;stroke-miterlimit:10;" d="M310,268c0,0-17.975-6.51-24.298-8.637L296.5,314.5c5,13.5,6.354,23.553,10.5,32.5c17.641-10.831,24-11,32.5-32.5C338.836,312.768,310,268,310,268z"></path><path style="fill:none;stroke:#666666;stroke-width:3;stroke-linecap:round;stroke-linejoin:round;stroke-miterlimit:10;" d="M301,310.5c0,0,7-8,9-9"></path><path style="fill:none;stroke:#666666;stroke-width:3;stroke-linecap:round;stroke-linejoin:round;stroke-miterlimit:10;" d="M296.5,314.5c0,0,7.5-6,10-6.5s19,6.5,19,6.5"></path></g><path style="fill:#3F3F3F;stroke:#666666;stroke-width:3;stroke-linecap:round;stroke-linejoin:round;stroke-miterlimit:10;" d="M331.131,146.765c2.569-12.855,2.121-39.963-4.631-67.765c-26.23,7.911-48.5,18-58.174,24.596C243.5,102,224.5,106,224.5,106s-13.305-10.963-51.769-18.977c-10.15,37.93,3.205,64.642,3.205,66.244c0,0-15.963,59.439,0.064,95.232c15,11.5,64.5,10,64.5,10S207.548,242.616,199,233c-7.167-16-3.366-56.65,2.511-67.335c14.958-14.958,26.267-18.956,46.546-20.369C281,143,299.344,161.857,299.344,161.857s12.323,42.477,7.656,67.81C288.903,248.292,266.5,256,266.5,256s65.605-0.16,82.167-23.667C348.667,232.333,355,198.333,331.131,146.765z"></path><path style="fill:#3F3F3F;stroke:#666666;stroke-width:3;stroke-linecap:round;stroke-linejoin:round;stroke-miterlimit:10;" d="M223.667,253l-9.167,16.5c0,0,14.5-4.5,18-4s7.938,4.506,14.5,8.5c-1-4.5-0.833-10.833-6.333-17.333C237.667,256.167,223.667,253,223.667,253z"></path><path style="fill:#3F3F3F;stroke:#666666;stroke-width:3;stroke-linecap:round;stroke-linejoin:round;stroke-miterlimit:10;" d="M266,257.5c0,0-6,11-8,17c7-4.5,18-10.5,28-13.5c7.364,3.398,18,1.5,25,7.5c0,0-17.5-20.5-20.5-21S271.5,252,266,257.5z"></path><path style="fill:#FFFFFF;stroke:#C7D9E8;stroke-width:3;stroke-linecap:round;stroke-linejoin:round;stroke-miterlimit:10;" d="M184,143.5c-2-8.5-6.5-20.5-2-36.5c11,4,27,15,27,15L184,143.5z"></path><path style="fill:#FFFFFF;stroke:#C7D9E8;stroke-width:3;stroke-linecap:round;stroke-linejoin:round;stroke-miterlimit:10;" d="M286.939,115.297C290.5,110.5,304.5,101,317,99.5c0.5,16-2.58,34.02-2.58,34.02L286.939,115.297z"></path><path style="fill:#3F3F3F;stroke:#666666;stroke-width:3;stroke-linecap:round;stroke-linejoin:round;stroke-miterlimit:10;" d="M293.5,312c0,0,19.5,14,23.5,32.5c-3.5,3.5-9,8-9,8L293,332"></path><polygon style="fill:#FFFFFF;stroke:#C7D9E8;stroke-width:3;stroke-linecap:round;stroke-linejoin:round;stroke-miterlimit:10;" points="246.083,271.5 253.893,271.5 257.268,274.41 256.491,300.209 244.637,299.433 241.167,294.39 "></polygon><circle style="fill:#FFFFFF;stroke:#C7D9E8;stroke-width:3;stroke-linecap:round;stroke-linejoin:round;stroke-miterlimit:10;" cx="248.25" cy="289.25" r="3.25"></circle></g></g><g id="lcart_ear_r" paramParts="1" paramTx="0" paramTy="0" paramScx="0.9427235999999999" paramScy="0.9427235999999999" paramRev="0" paramScale="1" paramCol="" paramColFrom="" paramColTo="" paramColLFrom="" paramColLTo="" paramColRFrom="" paramColRTo="" paramPtn="" paramPrev="0" paramPtnMode="0" paramSW="3" transform="scale(0.9427236318588257,0.9427236318588257)"><g id="x001" transform="translate(0, 0) scale(1,1)"><path style="fill:#FFFAFA;stroke:#DBB3B5;stroke-width:3;stroke-linecap:round;stroke-linejoin:round;stroke-miterlimit:10;" d="M208.42,212.535c0,0-7.362-8.414-13.378-3.744c-6.016,4.67-3.25,26.168,10.244,29.365c9.232,2.188,11.58-6.121,11.58-6.121"></path></g></g><g id="lcart_hair4_r" paramParts="1" paramTx="0" paramTy="0" paramScx="0.9427235999999999" paramScy="0.9427235999999999" paramRev="0" paramScale="1" paramCol="" paramColFrom="" paramColTo="" paramColLFrom="" paramColLTo="" paramColRFrom="" paramColRTo="" paramPtn="" paramPrev="0" paramPtnMode="0" paramSW="3" transform="scale(0.9427236318588257,0.9427236318588257)"><g id="x001" transform="translate(0, 0) scale(1,1)"></g></g><g id="lcart_face" paramParts="1" paramTx="0" paramTy="0" paramScx="0.9427235999999999" paramScy="0.9427235999999999" paramRev="0" paramScale="1" paramCol="" paramColFrom="" paramColTo="" paramColLFrom="" paramColLTo="" paramColRFrom="" paramColRTo="" paramPtn="" paramPrev="0" paramPtnMode="0" paramSW="3" transform="scale(0.9427236318588257,0.9427236318588257)"><g id="x001" transform="translate(0, 0) scale(1,1)"><g><path style="fill:#FFFAFA;stroke:#DBB3B5;stroke-width:3;stroke-linecap:round;stroke-linejoin:round;stroke-miterlimit:10;" d="M202.5,211.17c0,0,2.17,27.71,11.67,33c8.45,4.71,28.83,10.66,44.66,7.66c17.67-3.34,34.67-9.93,42.42-21.18c0,0,5.25-11.9,4-29.4c3.67-14.67,7.02-31.37-6.98-55.04c-14-23.66-41.279-28.52-62.669-24.66c-20.33,3.66-40.45,18.46-43.33,50.66C190.27,194.55,202.5,211.17,202.5,211.17z"></path></g></g></g><g id="lcart_facepaint" paramParts="1" paramTx="0" paramTy="0" paramScx="0.9427235999999999" paramScy="0.9427235999999999" paramRev="0" paramScale="1" paramCol="" paramColFrom="" paramColTo="" paramColLFrom="" paramColLTo="" paramColRFrom="" paramColRTo="" paramPtn="" paramPrev="0" paramPtnMode="0" paramSW="3" transform="scale(0.9427236318588257,0.9427236318588257)"><g id="x001" transform="translate(0, 0), scale(1, 1)"></g></g><g id="lcart_mouth" paramParts="13" paramTx="0" paramTy="0" paramScx="0.9427235999999999" paramScy="0.9427235999999999" paramRev="0" paramScale="1" paramCol="" paramColFrom="" paramColTo="" paramColLFrom="" paramColLTo="" paramColRFrom="" paramColRTo="" paramPtn="" paramPrev="0" paramPtnMode="0" paramSW="3" transform="scale(0.9427236318588257,0.9427236318588257)"><g id="x013" transform="translate(0, 0) scale(1,1)"><path style="fill:none;stroke:#DBB3B5;stroke-width:3;stroke-linecap:round;stroke-linejoin:round;stroke-miterlimit:10;" d="M244.448,239.595c-0.014,0.233-0.105,4.284,5.402,3.528c4.284-0.588,4.803-3.295,4.803-3.295s1.991,2.481,5.72,2.144c4.629-0.419,4.161-4.271,4.161-4.271"></path></g></g><g id="lcart_hair1_r" paramParts="1" paramTx="0" paramTy="0" paramScx="0.9427235999999999" paramScy="0.9427235999999999" paramRev="0" paramScale="1" paramCol="" paramColFrom="" paramColTo="" paramColLFrom="" paramColLTo="" paramColRFrom="" paramColRTo="" paramPtn="" paramPrev="0" paramPtnMode="0" paramSW="3" transform="scale(0.9427236318588257,0.9427236318588257)"><g id="x001" transform="translate(0, 0) scale(1,1)"><path style="fill: rgb(63, 63, 63); stroke: rgb(102, 102, 102); stroke-width: 3; stroke-linecap: round; stroke-linejoin: round; stroke-miterlimit: 10;" d="M323.334,165c-2.762-26.692-16.667-55.667-74.834-54c-64.692,1.854-79.5,59-70.009,86.722c7.096,20.727,28.392,32.78,28.392,32.78s-17.123-46.725,5.784-61.168c10.333-8.333,49-17,49-17s15.769,1.713,25.269,8.213C297,174.667,305.334,201,305.334,201l7.333,6.667C318.231,200.286,325.334,184.333,323.334,165z" orgb="" ostroke=""></path></g></g><g id="lcart_ear_f" paramParts="" paramTx="0" paramTy="0" paramScx="0.9427235999999999" paramScy="0.9427235999999999" paramRev="0" paramScale="1" paramCol="" paramColFrom="" paramColTo="" paramColLFrom="" paramColLTo="" paramColRFrom="" paramColRTo="" paramPtn="" paramPrev="0" paramPtnMode="0" paramSW="" transform="scale(0.9427236318588257,0.9427236318588257)"><g id="a001" transform="translate(0, 0) scale(1,1)"><g><g><path style="fill:#FFFAFA;stroke:#DBB3B5;stroke-width:3;stroke-linecap:round;stroke-linejoin:round;stroke-miterlimit:10;" d="M303.686,201.547c0,0,5-10,12-7s9.75,24.5-2.5,31c-8.381,4.447-12.75-3-12.75-3"></path></g></g></g></g><g id="lcart_hair4_f" paramParts="" paramTx="0" paramTy="0" paramScx="0.9427235999999999" paramScy="0.9427235999999999" paramRev="0" paramScale="1" paramCol="" paramColFrom="" paramColTo="" paramColLFrom="" paramColLTo="" paramColRFrom="" paramColRTo="" paramPtn="" paramPrev="0" paramPtnMode="0" paramSW="" transform="scale(0.9427236318588257,0.9427236318588257)"><g id="a001" transform="translate(0, 0) scale(1,1)"></g></g><g id="lcart_hair1_f" paramParts="" paramTx="0" paramTy="0" paramScx="0.9427235999999999" paramScy="0.9427235999999999" paramRev="0" paramScale="1" paramCol="" paramColFrom="" paramColTo="" paramColLFrom="" paramColLTo="" paramColRFrom="" paramColRTo="" paramPtn="" paramPrev="0" paramPtnMode="0" paramSW="" transform="scale(0.9427236318588257,0.9427236318588257)"><g id="a001" transform="translate(0, 0) scale(1,1)"><g><path style="fill: rgb(63, 63, 63); stroke: rgb(102, 102, 102); stroke-width: 3; stroke-linecap: round; stroke-linejoin: round; stroke-miterlimit: 10;" d="M215.162,154.245c0,0-22.488,30.981-17.8,88.679c-11.342-20.455-15.613-53.161-11.979-82.9" orgb="" ostroke=""></path><path style="fill: rgb(63, 63, 63); stroke: rgb(102, 102, 102); stroke-width: 3; stroke-linecap: round; stroke-linejoin: round; stroke-miterlimit: 10;" d="M192.673,185.227c0,0-6.273,46.893,12.153,80.079c-28.04-17.482-42.032-80.475-16.937-124.056" orgb="" ostroke=""></path><path style="fill: rgb(63, 63, 63); stroke: rgb(102, 102, 102); stroke-width: 3; stroke-linecap: round; stroke-linejoin: round; stroke-miterlimit: 10;" d="M297.511,177.758c0,0,7.656,59.474-0.299,80.689c26.625-24.75,23.332-80.14,12.822-115.183" orgb="" ostroke=""></path><path style="fill: rgb(63, 63, 63); stroke: rgb(102, 102, 102); stroke-width: 3; stroke-linecap: round; stroke-linejoin: round; stroke-miterlimit: 10;" d="M258.667,147.333c0,0,32.254,28.742,40.41,64.58c4.025-10.007,8.94-53.764-10.193-75.804" orgb="" ostroke=""></path><path style="fill: rgb(63, 63, 63); stroke: rgb(102, 102, 102); stroke-width: 3; stroke-linecap: round; stroke-linejoin: round; stroke-miterlimit: 10;" d="M214.237,137.898c0,0,0.834,64.868,33.022,78.789c1.007-2.502-1.593-4.711-1.593-4.711l5.903,3.151c0,0-12.668-41.724-14.489-49.239c9.739,20.585,21.703,48.653,22.631,50.19c5.673-14.578,10.085-49.621,0.529-77.885" orgb="" ostroke=""></path></g></g></g><g id="lcart_eye_r" paramParts="" paramTx="0" paramTy="0" paramScx="0.9427235999999999" paramScy="0.9427235999999999" paramRev="0" paramScale="1" paramCol="#FFB5B2" paramColFrom="#FFB5B2" paramColTo="#FFB5B2" paramColLFrom="" paramColLTo="" paramColRFrom="" paramColRTo="" paramPtn="" paramPrev="0" paramPtnMode="0" paramSW="" transform="scale(0.9427236318588257,0.9427236318588257)"><g id="x019" transform="translate(0, 0) scale(1,1)"><g><g><g><path style="fill: rgb(63, 63, 63); stroke-width: 3;" d="M275.063,201.532c-6.787,0.773-11.642,7.087-10.843,14.105c0.011,0.103,0.028,0.205,0.042,0.307l24.422-3.913C287.524,205.437,281.589,200.789,275.063,201.532z"></path><path style="fill: rgb(255, 181, 178); stroke-width: 3;" d="M288.684,212.031l-24.422,3.913c0.943,6.855,7.01,11.759,13.698,10.998c6.787-0.774,11.643-7.088,10.845-14.104C288.772,212.565,288.732,212.297,288.684,212.031z" orgb="rgb(0, 217, 255)"></path><path style="fill: rgb(63, 63, 63); stroke-width: 3;" d="M266.531,217.1c-0.91-7.164,3.047-13.568,8.841-14.305c5.792-0.736,11.227,4.475,12.135,11.64c0.427,3.349-0.212,6.532-1.604,9.048c3.232-3.161,5.002-7.958,4.354-13.057c-1.052-8.274-8.07-14.199-15.679-13.232c-7.607,0.968-12.923,8.458-11.87,16.733c0.67,5.266,3.758,9.577,7.874,11.768C268.485,223.596,266.975,220.58,266.531,217.1z"></path></g></g><g><g><path style="fill: rgb(63, 63, 63); stroke-width: 3;" d="M233.973,217.431c-1.814-6.825-8.131-11.069-14.106-9.481c-5.877,1.563-9.233,8.187-7.615,14.897l22.09-3.538C234.261,218.685,234.14,218.058,233.973,217.431z"></path><path style="fill: rgb(255, 181, 178); stroke-width: 3;" d="M212.251,222.847c0.027,0.113,0.053,0.225,0.081,0.336c1.815,6.826,8.129,11.07,14.106,9.482c5.426-1.443,8.706-7.199,7.903-13.356L212.251,222.847z" orgb="rgb(0, 217, 255)"></path><path style="fill: rgb(63, 63, 63); stroke-width: 3;" d="M214.472,224.32c-1.804-6.965,0.949-13.862,6.147-15.406c5.2-1.544,10.875,2.849,12.679,9.814c0.843,3.256,0.689,6.498-0.242,9.184c2.528-3.584,3.498-8.584,2.214-13.539c-2.083-8.045-9.304-12.921-16.134-10.893c-6.827,2.028-10.675,10.193-8.591,18.238c1.325,5.119,4.734,8.952,8.796,10.542C217.138,230.476,215.346,227.702,214.472,224.32z"></path></g></g></g></g></g><g id="lcart_eyelight" paramParts="16" paramTx="0" paramTy="0" paramScx="0.9427235999999999" paramScy="0.9427235999999999" paramRev="0" paramScale="1" paramCol="#ffffff" paramColFrom="#ffffff" paramColTo="#ffffff" paramColLFrom="" paramColLTo="" paramColRFrom="" paramColRTo="" paramPtn="" paramPrev="0" paramPtnMode="0" paramSW="3" transform="scale(0.9427236318588257,0.9427236318588257)"><g id="x016" transform="translate(0, 0) scale(1,1)"><g><g><path style="fill: rgb(255, 255, 255); stroke-width: 3;" d="M283.374,215.271c0.421,2.854-2.126,4.944-5.574,5.452c-3.446,0.508-6.488-0.758-6.909-3.612c-0.42-2.854,1.938-6.216,5.387-6.724C279.725,209.878,282.953,212.416,283.374,215.271z" orgb="rgb(255, 255, 255)"></path><g><polygon style="fill: rgb(255, 255, 255); stroke-width: 3;" points="275.125,211.845 271.124,214.65 270.879,209.313 " orgb="rgb(255, 255, 255)"></polygon><polygon style="fill: rgb(255, 255, 255); stroke-width: 3;" points="277.8,211.451 282.441,212.982 281.136,207.802 " orgb="rgb(255, 255, 255)"></polygon></g></g><g><path style="fill: rgb(255, 255, 255); stroke-width: 3;" d="M230.124,221.521c0.421,2.854-2.126,4.944-5.574,5.452c-3.446,0.508-6.488-0.758-6.909-3.612c-0.42-2.854,1.938-6.216,5.387-6.724C226.475,216.128,229.703,218.666,230.124,221.521z" orgb="rgb(255, 255, 255)"></path><g><polygon style="fill: rgb(255, 255, 255); stroke-width: 3;" points="221.875,218.095 217.874,220.9 217.629,215.563 " orgb="rgb(255, 255, 255)"></polygon><polygon style="fill: rgb(255, 255, 255); stroke-width: 3;" points="224.55,217.701 229.191,219.232 227.886,214.052 " orgb="rgb(255, 255, 255)"></polygon></g></g></g></g></g><g id="lcart_eye_f" paramParts="19" paramTx="0" paramTy="0" paramScx="0.9427235999999999" paramScy="0.9427235999999999" paramRev="0" paramScale="1" paramCol="#FFB5B2" paramColFrom="#FFB5B2" paramColTo="#FFB5B2" paramColLFrom="" paramColLTo="" paramColRFrom="" paramColRTo="" paramPtn="" paramPrev="0" paramPtnMode="0" paramSW="3" transform="scale(0.9427236318588257,0.9427236318588257)"><g id="a019" transform="translate(0, 0) scale(1,1)"><g><path style="fill: rgb(63, 63, 63); stroke-width: 3;" d="M260.875,207.25c0,0,3.875-5.125,9.25-6.875s16.875-2,21.375,0.75s2.25,19,0.25,21.25c5.625-3.75,8.625-16.75,5.125-23.75c-2.875-4.125-15.893-8.259-26.875-3.25C262.875,198.625,260.875,207.25,260.875,207.25z"></path><path style="fill: rgb(63, 63, 63); stroke-width: 3;" d="M237.078,211.181c0,0-4.566-4.247-9.856-4.881c-5.291-0.634-15.929,1.437-19.538,5.04c-3.608,3.604,1.627,19.089,3.907,20.893c-5.91-2.545-11.203-14.692-9.343-22.263c1.844-4.625,13.027-11.301,24.115-8.599C233.557,203.124,237.078,211.181,237.078,211.181z"></path></g></g></g><g id="lcart_eyeblow" paramParts="2" paramTx="0" paramTy="0" paramScx="0.9427235999999999" paramScy="0.9427235999999999" paramRev="0" paramScale="1" paramCol="" paramColFrom="" paramColTo="" paramColLFrom="" paramColLTo="" paramColRFrom="" paramColRTo="" paramPtn="" paramPrev="0" paramPtnMode="0" paramSW="3" transform="scale(0.9427236318588257,0.9427236318588257)"><g id="x002" transform="translate(0, 0) scale(1,1)"><g><path style="fill: none; stroke: rgb(102, 102, 102); stroke-width: 3; stroke-linecap: round; stroke-linejoin: round; stroke-miterlimit: 10;" d="M262.555,175.088c0,0,6.07-2.713,16.026,0.32" orgb="" ostroke=""></path><path style="fill: none; stroke: rgb(102, 102, 102); stroke-width: 3; stroke-linecap: round; stroke-linejoin: round; stroke-miterlimit: 10;" d="M229.876,179.252c0,0-7.709-1.752-15.89,2.106" orgb="" ostroke=""></path></g></g></g><g id="lcart_glass" paramParts="1" paramTx="0" paramTy="0" paramScx="0.9427235999999999" paramScy="0.9427235999999999" paramRev="0" paramScale="1" paramCol="" paramColFrom="" paramColTo="" paramColLFrom="" paramColLTo="" paramColRFrom="" paramColRTo="" paramPtn="" paramPrev="0" paramPtnMode="0" paramSW="3" transform="scale(0.9427236318588257,0.9427236318588257)"><g id="x001" transform="translate(0, 0), scale(1, 1)"></g></g><g id="lcart_hat_f" paramParts="" paramTx="0" paramTy="0" paramScx="0.9427235999999999" paramScy="0.9427235999999999" paramRev="0" paramScale="1" paramCol="" paramColFrom="" paramColTo="" paramColLFrom="" paramColLTo="" paramColRFrom="" paramColRTo="" paramPtn="" paramPrev="0" paramPtnMode="0" paramSW="" transform="scale(0.9427236318588257,0.9427236318588257)"></g><g id="lcart_hat2_f" paramParts="" paramTx="0" paramTy="0" paramScx="0.9427235999999999" paramScy="0.9427235999999999" paramRev="0" paramScale="1" paramCol="" paramColFrom="" paramColTo="" paramColLFrom="" paramColLTo="" paramColRFrom="" paramColRTo="" paramPtn="" paramPrev="0" paramPtnMode="0" paramSW="" transform="translate(0, 0), scale(0.9427235999999999,0.9427235999999999)"></g><g id="lcart_hair5" paramParts="1" paramTx="0" paramTy="0" paramScx="0.9427235999999999" paramScy="0.9427235999999999" paramRev="0" paramScale="1" paramCol="" paramColFrom="" paramColTo="" paramColLFrom="" paramColLTo="" paramColRFrom="" paramColRTo="" paramPtn="" paramPrev="0" paramPtnMode="0" paramSW="3" transform="scale(0.9427236318588257,0.9427236318588257)"><g id="x001" transform="translate(0, 0) scale(1,1)"></g></g><g id="lcart_left_f" paramParts="1" paramTx="0" paramTy="0" paramScx="0.9427235999999999" paramScy="0.9427235999999999" paramRev="0" paramScale="1" paramCol="" paramColFrom="" paramColTo="" paramColLFrom="" paramColLTo="" paramColRFrom="" paramColRTo="" paramPtn="" paramPrev="0" paramPtnMode="0" paramSW="3" transform="scale(0.9427236318588257,0.9427236318588257)"><g id="a001" transform="translate(0, 0), scale(1, 1)"></g></g><g id="lcart_ef_f" paramParts="" paramTx="0" paramTy="0" paramScx="0.9427235999999999" paramScy="0.9427235999999999" paramRev="0" paramScale="1" paramCol="" paramColFrom="" paramColTo="" paramColLFrom="" paramColLTo="" paramColRFrom="" paramColRTo="" paramPtn="" paramPrev="0" paramPtnMode="0" paramSW="" transform="translate(0, 0), scale(0.9427235999999999,0.9427235999999999)"></g></g></g><defs><style>@font-face {	font-family: 'RondeB'; src: url('../font/Ronde-B_square.otf') format('opentype');}</style><pattern id="cpattern001" patternUnits="userSpaceOnUse" x="0" y="0" width="50" height="50"><g transform="translate(-94.5,-94.5), scale(1,1)"><g id="001">
	<g>
		<rect x="94.5" y="94.5" style="fill:#3F3F3F;" width="50" height="50"></rect>
		<circle style="fill:#FFFFFF;" cx="119.5" cy="119.5" r="17.5"></circle>
	</g>
</g></g></pattern><pattern id="cpattern002" patternUnits="userSpaceOnUse" x="0" y="0" width="50" height="50"><g transform="translate(-94.5,-94.5), scale(1,1)"><g id="002">
	<g>
		<rect x="94.5" y="94.5" style="fill:#3F3F3F;" width="50" height="50"></rect>
		<circle style="fill:#FFFFFF;" cx="111.125" cy="111.125" r="11.625"></circle>
	</g>
</g></g></pattern><pattern id="cpattern003" patternUnits="userSpaceOnUse" x="0" y="0" width="50" height="50"><g transform="translate(-94.5,-94.5), scale(1,1)"><g id="003">
	<g>
		<g>
			<rect x="94.5" y="94.5" style="fill:#3F3F3F;" width="50" height="50"></rect>
		</g>
		<g>
			<circle style="fill:#FFFFFF;" cx="108" cy="107" r="7.5"></circle>
			<circle style="fill:#FFFFFF;" cx="131" cy="132" r="7.5"></circle>
		</g>
	</g>
</g></g></pattern><pattern id="cpattern004" patternUnits="userSpaceOnUse" x="0" y="0" width="50" height="50"><g transform="translate(-94.5,-94.5), scale(1,1)"><g id="004">
	<g>
		<g>
			<rect x="94.5" y="94.5" style="fill:#3F3F3F;" width="50" height="50"></rect>
		</g>
		<g>
			<rect x="109.033" y="115.64" style="fill:#FFFFFF;" width="19.934" height="6.721"></rect>
			<rect x="115.64" y="109.033" style="fill:#FFFFFF;" width="6.721" height="19.934"></rect>
		</g>
	</g>
</g></g></pattern><pattern id="cpattern005" patternUnits="userSpaceOnUse" x="0" y="0" width="50" height="50"><g transform="translate(-94.5,-94.5), scale(1,1)"><g id="005">
	<g>
		<g>
			<rect x="94.5" y="94.5" style="fill:#FFFFFF;" width="50" height="50"></rect>
		</g>
		<rect x="94.5" y="94.5" style="fill:#3F3F3F;" width="12.5" height="50"></rect>
		<rect x="119.5" y="94.5" style="fill:#3F3F3F;" width="12.55" height="50"></rect>
	</g>
</g></g></pattern><pattern id="cpattern006" patternUnits="userSpaceOnUse" x="0" y="0" width="50" height="50"><g transform="translate(-94.5,-94.5), scale(1,1)"><g id="006">
	<g>
		<g>
			<rect x="94.5" y="94.5" style="fill:#FFFFFF;" width="50" height="50"></rect>
		</g>
		<rect x="94.5" y="94.5" style="fill:#3F3F3F;" width="50" height="12.5"></rect>
		<rect x="94.5" y="119.5" style="fill:#3F3F3F;" width="50" height="12.5"></rect>
	</g>
</g></g></pattern><pattern id="cpattern007" patternUnits="userSpaceOnUse" x="0" y="0" width="50" height="50"><g transform="translate(-94.5,-94.5), scale(1,1)"><g id="007">
	<g>
		<rect x="94.5" y="94.5" style="fill:#FFFFFF;" width="50" height="50"></rect>
		<rect x="94.5" y="94.5" style="fill:#3F3F3F;" width="50" height="14"></rect>
		<rect x="94.5" y="130.5" style="fill:#3F3F3F;" width="50" height="14"></rect>
	</g>
</g></g></pattern><pattern id="cpattern008" patternUnits="userSpaceOnUse" x="0" y="0" width="50" height="50"><g transform="translate(-94.5,-94.5), scale(1,1)"><g id="008">
	<g>
		<rect x="94.5" y="94.5" style="fill:#FFFFFF;" width="50" height="50"></rect>
		<rect x="94.5" y="94.5" style="fill:#3F3F3F;" width="14" height="50"></rect>
		<rect x="130.5" y="94.5" style="fill:#3F3F3F;" width="14" height="50"></rect>
	</g>
</g></g></pattern><pattern id="cpattern009" patternUnits="userSpaceOnUse" x="0" y="0" width="50" height="50"><g transform="translate(-94.5,-94.5), scale(1,1)"><g id="009">
	<g>
		<rect x="94.5" y="94.5" style="fill:#3F3F3F;" width="50" height="50"></rect>
		<polygon style="fill:#FFFFFF;" points="119.5,94.5 94.5,119.5 94.5,107 107,94.5 		"></polygon>
		<polygon style="fill:#FFFFFF;" points="144.5,94.5 94.5,144.5 94.5,132 132,94.5 		"></polygon>
		<polygon style="fill:#FFFFFF;" points="144.5,107 144.5,119.5 119.5,144.5 107,144.5 		"></polygon>
		<polygon style="fill:#FFFFFF;" points="144.5,132 144.5,144.5 132,144.5 		"></polygon>
	</g>
</g></g></pattern><pattern id="cpattern010" patternUnits="userSpaceOnUse" x="0" y="0" width="50" height="50"><g transform="translate(-94.5,-94.5), scale(1,1)"><g id="010">
	<g>
		<polygon style="fill:#3F3F3F;" points="94.5,94.5 94.5,119.5 119.5,94.5 		"></polygon>
		<polygon style="fill:#FFFFFF;" points="119.5,94.5 94.5,119.5 94.5,144.5 144.5,94.5 		"></polygon>
		<polygon style="fill:#3F3F3F;" points="94.5,144.5 119.5,144.5 144.5,119.5 144.5,94.5 		"></polygon>
		<polygon style="fill:#FFFFFF;" points="119.5,144.5 144.5,144.5 144.5,119.5 		"></polygon>
	</g>
</g></g></pattern><pattern id="cpattern011" patternUnits="userSpaceOnUse" x="0" y="0" width="50" height="50"><g transform="translate(-94.5,-94.5), scale(1,1)"><g id="011">
	<g>
		<g>
			<polygon style="fill:#3F3F3F;" points="138.717,123.066 131.934,116.454 141.307,115.092 144.5,108.623 144.5,94.5 126.302,94.5
				127.887,103.737 119.5,99.329 111.114,103.737 112.7,94.5 94.5,94.5 94.5,144.5 144.5,144.5 144.5,128.521 137.115,132.402
				"></polygon>
			<polygon style="fill:#FFFFFF;" points="119.5,99.329 127.887,103.737 126.302,94.5 112.7,94.5 111.114,103.737 			"></polygon>
			<polygon style="fill:#FFFFFF;" points="141.307,115.092 131.934,116.454 138.717,123.066 137.115,132.402 144.5,128.521
				144.5,108.623 			"></polygon>
		</g>
		<polygon style="fill:#FFFFFF;" points="126.284,144.4 133.066,137.787 123.691,136.426 119.5,127.93 115.307,136.426
			105.933,137.787 112.717,144.4 112.7,144.5 126.302,144.5 		"></polygon>
		<polygon style="fill:#FFFFFF;" points="109.068,116.454 99.693,115.092 95.5,106.597 94.5,108.623 94.5,128.521 95.5,127.995
			103.887,132.402 102.285,123.066 		"></polygon>
	</g>
</g></g></pattern><pattern id="cpattern012" patternUnits="userSpaceOnUse" x="0" y="0" width="50" height="50"><g transform="translate(-94.5,-94.5), scale(1,1)"><g id="012">
	<g>
		<rect x="94.5" y="94.5" style="fill:#3F3F3F;" width="50" height="50"></rect>
		<g>
			<g>

					<rect x="104.785" y="111.668" transform="matrix(0.7071 0.7071 -0.7071 0.7071 120.0333 -48.0278)" style="fill:#FFFFFF;" width="26.414" height="18.427"></rect>
				<g>

						<rect x="113.458" y="113.577" transform="matrix(0.7071 0.7071 -0.7071 0.7071 115.9608 -47.9633)" style="fill:#3F3F3F;" width="4.838" height="4.836"></rect>

						<rect x="120.417" y="120.538" transform="matrix(0.7069 0.7073 -0.7073 0.7069 122.97 -50.8453)" style="fill:#3F3F3F;" width="4.838" height="4.835"></rect>
				</g>
			</g>
			<g>

					<rect x="116.389" y="102.109" transform="matrix(0.7071 0.7071 -0.7071 0.7071 109.2092 -53.6011)" style="fill:#FFFFFF;" width="5.835" height="5.836"></rect>

					<rect x="130.897" y="116.662" transform="matrix(0.7071 0.7071 -0.7071 0.7071 123.7389 -59.597)" style="fill:#FFFFFF;" width="5.837" height="5.835"></rect>

					<rect x="131.871" y="132.653" transform="matrix(0.7074 0.7069 -0.7069 0.7074 135.2743 -55.6025)" style="fill:#FFFFFF;" width="5.837" height="5.836"></rect>

					<rect x="100.745" y="101.069" transform="matrix(0.7074 0.7069 -0.7069 0.7074 103.8412 -42.8438)" style="fill:#FFFFFF;" width="5.836" height="5.838"></rect>
			</g>
		</g>
	</g>
</g></g></pattern><pattern id="cpattern013" patternUnits="userSpaceOnUse" x="0" y="0" width="50" height="50"><g transform="translate(-94.5,-94.5), scale(1,1)"><g id="013">
	<g>
		<rect x="94.5" y="94.5" style="fill:#3F3F3F;" width="49.999" height="50"></rect>
		<g>
			<polygon style="fill:#FFFFFF;" points="113.538,117.747 113.538,133.441 99.5,122.734 99.5,129.875 119.5,144.5 119.5,117.747
							"></polygon>
			<polygon style="fill:#FFFFFF;" points="138.538,117.747 138.538,133.441 124.5,122.734 124.5,129.875 144.5,144.5 144.5,117.747
							"></polygon>
			<polygon style="fill:#FFFFFF;" points="107.842,94.5 107.842,119.499 94.5,109.743 94.5,102.812 101.88,108.441 101.88,94.5
				"></polygon>
			<polygon style="fill:#FFFFFF;" points="132.842,94.5 132.842,119.499 112.841,104.875 112.841,97.732 126.881,108.441
				126.881,94.5 			"></polygon>
			<polygon style="fill:#FFFFFF;" points="144.499,102.812 144.499,109.742 137.842,104.875 137.842,97.732 			"></polygon>
			<rect x="101.88" y="142.748" style="fill:#FFFFFF;" width="5.961" height="1.752"></rect>
			<rect x="126.881" y="142.748" style="fill:#FFFFFF;" width="5.961" height="1.752"></rect>
		</g>
	</g>
</g></g></pattern><pattern id="cpattern014" patternUnits="userSpaceOnUse" x="0" y="0" width="50" height="50"><g transform="translate(-94.5,-94.5), scale(1,1)"><g id="014">
	<g>
		<path style="fill:#3F3F3F;" d="M119.5,94.5v0.391c-8.352,0-12.594,4.77-16,8.605c-3.191,3.586-5.039,5.457-9,5.457V94.5H119.5z"></path>
		<path style="fill:#3F3F3F;" d="M128.5,135.504c-3.191-3.586-5.039-5.457-9-5.457c-3.957,0-5.809,1.871-8.996,5.457
			c-3.406,3.836-7.648,8.605-16.004,8.605v0.391h25h25v-0.391C136.148,144.109,131.906,139.34,128.5,135.504z"></path>
		<path style="fill:#3F3F3F;" d="M144.5,94.5v14.453c-3.957,0-5.809-1.871-8.996-5.457c-3.406-3.836-7.648-8.605-16.004-8.605V94.5
			H144.5z"></path>
		<path style="fill:#FFFFFF;" d="M144.5,108.953v35.156c-8.352,0-12.594-4.771-16-8.605c-3.191-3.586-5.039-5.457-9-5.457
			c-3.957,0-5.809,1.871-8.996,5.457c-3.406,3.836-7.648,8.605-16.004,8.605v-35.156c3.961,0,5.809-1.871,9-5.457
			c3.406-3.836,7.648-8.605,16-8.605c8.355,0,12.598,4.77,16.004,8.605C138.691,107.082,140.543,108.953,144.5,108.953z"></path>
		<path style="fill:#3F3F3F;" d="M144.5,116.766v19.531c-4.621,0-6.766-2.16-10.164-5.98c-3.363-3.789-7.18-8.082-14.836-8.082
			c-7.652,0-11.469,4.293-14.836,8.082c-3.395,3.82-5.539,5.98-10.164,5.98v-19.531c7.656,0,11.473-4.293,14.836-8.082
			c3.398-3.82,5.543-5.98,10.164-5.98c4.625,0,6.77,2.16,10.164,5.98C133.031,112.473,136.848,116.766,144.5,116.766z"></path>
	</g>
</g></g></pattern><pattern id="cpattern015" patternUnits="userSpaceOnUse" x="0" y="0" width="50" height="50"><g transform="translate(-94.5,-94.5), scale(1,1)"><g id="015">
	<g>
		<rect x="94.5" y="94.5" style="fill:#3F3F3F;" width="50" height="50"></rect>
		<rect x="113.641" y="113.641" style="fill:#3F3F3F;" width="11.718" height="11.718"></rect>
		<rect x="108.953" y="94.5" style="fill:#FFFFFF;" width="4.688" height="30.859"></rect>
		<rect x="113.641" y="108.953" style="fill:#FFFFFF;" width="30.859" height="4.688"></rect>
		<rect x="125.359" y="113.641" style="fill:#FFFFFF;" width="4.688" height="30.859"></rect>
		<polygon style="fill:#FFFFFF;" points="94.5,130.047 125.359,130.047 125.359,125.359 113.641,125.359 108.953,125.359
			94.5,125.359 		"></polygon>
	</g>
</g></g></pattern><pattern id="cpattern016" patternUnits="userSpaceOnUse" x="0" y="0" width="50" height="50"><g transform="translate(-94.5,-94.5), scale(1,1)"><g id="016">
	<rect x="94.5" y="94.5" style="fill:#3F3F3F;" width="50" height="50"></rect>

		<rect x="98.162" y="98.161" transform="matrix(0.7071 -0.7071 0.7071 0.7071 -44.321 106.9973)" style="fill:#FFFFFF;" width="17.677" height="17.678"></rect>

		<rect x="98.161" y="123.161" transform="matrix(0.7071 -0.7071 0.7071 0.7071 -61.9984 114.3225)" style="fill:#FFFFFF;" width="17.678" height="17.678"></rect>

		<rect x="123.161" y="98.161" transform="matrix(0.7071 -0.7071 0.7071 0.7071 -36.9991 124.6743)" style="fill:#FFFFFF;" width="17.677" height="17.678"></rect>

		<rect x="123.161" y="123.161" transform="matrix(0.7071 -0.7071 0.7071 0.7071 -54.6763 131.9998)" style="fill:#FFFFFF;" width="17.678" height="17.678"></rect>
</g></g></pattern><pattern id="cpattern017" patternUnits="userSpaceOnUse" x="0" y="0" width="50" height="50"><g transform="translate(-94.5,-94.5), scale(1,1)"><g id="017">
	<g>
		<rect x="94.5" y="94.5" style="fill:#3F3F3F;" width="50" height="50"></rect>
		<g>
			<path style="fill:#FFFFFF;" d="M99.158,105.328c-0.297-0.217-0.574-0.641-0.791-0.883c-0.219-0.244-0.697-0.689-0.67-0.037
				c0.027,0.652,0.775,5.5-1.375,5.182c-2.027-0.299-0.701-4.256-1.043-5.373c-0.301,0.211-0.539,0.52-0.779,0.834v-4.018
				c0.17-0.244,0.342-0.488,0.518-0.721c0.75-0.994,1.113-1.176,2.08-0.305c0.705,0.637,1.381,1.469,1.979,2.207
				c0.521,0.645,1.301,1.426,1.43,2.264C100.686,105.639,100.094,106.01,99.158,105.328z"></path>
			<path style="fill:#FFFFFF;" d="M144.5,101.033v4.018c-0.32,0.416-0.648,0.84-1.139,1.053c-0.906,0.393-1.648-0.543-1.479-1.467
				c0.166-0.879,1.016-1.492,1.549-2.143C143.813,102.033,144.156,101.527,144.5,101.033z"></path>
		</g>
		<path style="fill:#FFFFFF;" d="M117.522,125.045c0.027,0.653,0.776,5.5-1.374,5.184c-2.027-0.301-0.702-4.258-1.043-5.373
			c-0.696,0.484-1.057,1.516-1.918,1.889c-0.905,0.393-1.647-0.543-1.474-1.471c0.165-0.879,1.011-1.488,1.544-2.142
			c0.568-0.69,1.055-1.477,1.585-2.182c0.75-0.996,1.114-1.176,2.08-0.306c0.706,0.636,1.381,1.469,1.98,2.207
			c0.521,0.645,1.301,1.426,1.43,2.264c0.18,1.16-0.412,1.531-1.348,0.85c-0.297-0.216-0.574-0.64-0.793-0.883
			C117.974,124.839,117.495,124.393,117.522,125.045z"></path>
		<path style="fill:#FFFFFF;" d="M125.855,99.578c-1.145,0.898-1.922-2.129-2.682-1.785c-0.787,0.359,0.572,4.465-0.438,5.221
			c-0.945,0.709-1.762,0.186-1.926-0.871c-0.084-0.553-0.086-1.248-0.109-1.809c-0.021-0.328,0.063-1.756-0.143-1.992
			c-0.566-0.676-1.595,1.471-2.125,1.717c-0.451,0.211-0.949,0.141-1.221-0.359c-0.273-0.506,0.182-1.186,0.465-1.563
			c0.699-0.928,1.168-1.488,1.875-2.525c0.232-0.344,0.523-0.75,0.82-1.111h2.678c0.328,0.385,0.697,0.857,1.152,1.369
			C124.863,96.611,126.916,98.746,125.855,99.578z"></path>
		<path style="fill:#FFFFFF;" d="M123.055,144.5h-2.678c0.41-0.5,0.836-0.914,1.15-0.965
			C122.061,143.449,122.498,143.85,123.055,144.5z"></path>
		<path style="fill:#FFFFFF;" d="M102.416,142.271c-0.948,0.711-1.76,0.187-1.923-0.871c-0.086-0.553-0.086-1.248-0.115-1.812
			c-0.017-0.323,0.062-1.756-0.137-1.987c-0.571-0.682-1.596,1.469-2.129,1.717c-0.451,0.209-0.951,0.141-1.221-0.36
			c-0.273-0.506,0.18-1.185,0.465-1.563c0.699-0.927,1.167-1.484,1.873-2.521c0.556-0.816,1.43-1.99,1.972-2.076
			c0.849-0.136,1.459,0.957,2.68,2.335c0.656,0.74,2.708,2.876,1.648,3.708c-1.141,0.896-1.923-2.129-2.679-1.785
			C102.061,137.41,103.423,141.516,102.416,142.271z"></path>
		<path style="fill:#FFFFFF;" d="M109.071,108.609c-0.043,1.017-0.025,2.783,0.039,3.47c0.079,0.835,0.648,1.479,1.579,1.163
			c0.898-0.307,0.643-1.74,0.65-2.539c0.01-1.072,0.087-1.932,0.036-2.905c-0.065-0.969,1.616,1.553,2.303,1.95
			c0.994,0.574,2.09-0.383,1.598-1.375c-0.449-0.906-1.383-1.588-2.042-2.343c-0.622-0.712-1.321-1.465-2.111-1.972
			c-0.743-0.477-1.683,0.014-2.335,1.069c-0.602,0.974-1.432,1.815-2.139,2.7c-0.492,0.617-1.422,2.301,0.051,2.448
			c1.176,0.118,1.531-1.575,2.178-2.085C109.045,108.059,109.073,108.553,109.071,108.609z"></path>
		<path style="fill:#FFFFFF;" d="M130.456,112.774c-0.519,0.549-1.124,1.037-1.638,1.602c-0.418,0.459-1.139,0.944-1.115,1.63
			c0.025,0.731,0.977,0.972,1.523,0.771c0.778-0.287,1.225-0.932,1.811-1.427c0.326-0.394,0.122,1.463,0.146,1.889
			c0.028,0.595,0.03,1.039,0,1.667c-0.057,0.971,0.238,2.994,1.735,2.275c0.782-0.377,0.435-2.272,0.396-3
			c-0.021-0.503-0.021-0.984,0.002-1.478c0.021-0.452-0.151-0.909-0.139-1.343c0.377-0.03,0.93,0.855,1.215,1.092
			c0.537,0.445,1.314,0.802,1.777,0.216c0.406-0.516,0.334-0.907-0.025-1.458c-0.271-0.411-0.658-0.848-1.023-1.187
			c-0.488-0.451-1.006-0.923-1.438-1.422c-0.229-0.262-0.4-0.482-0.662-0.719C131.93,110.888,131.168,112.021,130.456,112.774z"></path>
		<path style="fill:#FFFFFF;" d="M137.338,132.631c0.4,1.063,1.055,5.422-0.74,5.342c-1.871-0.084-1.229-4.123-1.422-5.26
			c-0.669,0.15-1.51,2.794-2.603,1.602c-0.964-1.051,0.436-2.395,1.088-3.105c0.586-0.646,1.771-2.729,2.591-2.643
			c0.827,0.086,2.215,1.824,2.747,2.4c0.696,0.756,1.786,2.284,0.474,3.023c-0.512,0.131-1.463-1.854-1.953-1.508L137.338,132.631z"></path>
	</g>
</g></g></pattern><pattern id="cpattern018" patternUnits="userSpaceOnUse" x="0" y="0" width="50" height="50"><g transform="translate(-94.5,-94.5), scale(1,1)"><g id="018">
	<g>
		<rect x="94.5" y="94.5" width="50" height="50"></rect>
		<rect x="117.541" y="97.58" style="fill:none;" width="18.709" height="20.21"></rect>
		<rect x="94.5" y="94.5" style="fill:#FFFFFF;" width="19.961" height="3.08"></rect>
		<rect x="117.541" y="94.5" style="fill:#FFFFFF;" width="18.709" height="3.08"></rect>
		<rect x="117.541" y="117.79" style="fill:#FFFFFF;" width="18.709" height="7.821"></rect>
		<rect x="94.5" y="117.79" style="fill:#FFFFFF;" width="19.961" height="7.821"></rect>
		<rect x="136.25" y="125.611" style="fill:#FFFFFF;" width="8.25" height="18.889"></rect>
		<rect x="136.25" y="97.58" style="fill:#FFFFFF;" width="8.25" height="20.21"></rect>
		<rect x="114.461" y="125.611" style="fill:#FFFFFF;" width="3.08" height="18.889"></rect>
		<rect x="114.461" y="97.58" style="fill:#FFFFFF;" width="3.08" height="20.21"></rect>
		<g>
			<g>
				<g>
					<polygon style="fill:#3F3F3F;" points="144.5,95 144,94.5 144.5,94.5 					"></polygon>
					<polygon style="fill:#3F3F3F;" points="144.5,97 142,94.5 143,94.5 144.5,96 					"></polygon>
					<polygon style="fill:#3F3F3F;" points="144.5,99 140,94.5 141,94.5 144.5,98 					"></polygon>
					<polygon style="fill:#3F3F3F;" points="144.5,101 138,94.5 139,94.5 144.5,100 					"></polygon>
					<polygon style="fill:#3F3F3F;" points="144.5,103 136,94.5 137,94.5 144.5,102 					"></polygon>
					<polygon style="fill:#3F3F3F;" points="144.5,105 134,94.5 135,94.5 144.5,104 					"></polygon>
					<polygon style="fill:#3F3F3F;" points="144.5,107 132,94.5 133,94.5 144.5,106 					"></polygon>
					<polygon style="fill:#3F3F3F;" points="144.5,109 130,94.5 131,94.5 144.5,108 					"></polygon>
					<polygon style="fill:#3F3F3F;" points="144.5,111 128,94.5 129,94.5 144.5,110 					"></polygon>
					<polygon style="fill:#3F3F3F;" points="144.5,113 126,94.5 127,94.5 144.5,112 					"></polygon>
					<polygon style="fill:#3F3F3F;" points="144.5,115 124,94.5 125,94.5 144.5,114 					"></polygon>
					<polygon style="fill:#3F3F3F;" points="144.5,117 122,94.5 123,94.5 144.5,116 					"></polygon>
					<polygon style="fill:#3F3F3F;" points="144.5,119 120,94.5 121,94.5 144.5,118 					"></polygon>
					<polygon style="fill:#3F3F3F;" points="144.5,121 118,94.5 119,94.5 144.5,120 					"></polygon>
				</g>
				<g>
					<polygon style="fill:#3F3F3F;" points="144.5,123 116.001,94.5 117,94.5 144.5,122 					"></polygon>
					<polygon style="fill:#3F3F3F;" points="144.5,125 114,94.5 115,94.5 144.5,124 					"></polygon>
					<polygon style="fill:#3F3F3F;" points="144.5,127 112.001,94.5 113,94.5 144.5,126 					"></polygon>
					<polygon style="fill:#3F3F3F;" points="144.5,129 110,94.5 111,94.5 144.5,128 					"></polygon>
					<polygon style="fill:#3F3F3F;" points="144.5,131 108.001,94.5 109,94.5 144.5,130 					"></polygon>
					<polygon style="fill:#3F3F3F;" points="144.5,133 106,94.5 107,94.5 144.5,132 					"></polygon>
					<polygon style="fill:#3F3F3F;" points="144.5,135 104.001,94.5 105.001,94.5 144.5,134 					"></polygon>
					<polygon style="fill:#3F3F3F;" points="144.5,137 102,94.5 103,94.5 144.5,136 					"></polygon>
					<polygon style="fill:#3F3F3F;" points="144.5,139 100.001,94.5 101.001,94.5 144.5,138 					"></polygon>
					<polygon style="fill:#3F3F3F;" points="144.5,141 98,94.5 99,94.5 144.5,140 					"></polygon>
					<polygon style="fill:#3F3F3F;" points="144.5,143 96.001,94.5 97.001,94.5 144.5,142 					"></polygon>
					<polygon style="fill:#3F3F3F;" points="144.5,144.5 144,144.5 94.5,95 94.5,94.5 95,94.5 144.5,144 					"></polygon>
				</g>
			</g>
			<g>
				<g>
					<polygon style="fill:#3F3F3F;" points="143,144.5 142,144.5 94.5,97.001 94.5,96 					"></polygon>
					<polygon style="fill:#3F3F3F;" points="141,144.5 140,144.5 94.5,99 94.5,98 					"></polygon>
					<polygon style="fill:#3F3F3F;" points="139,144.5 138,144.5 94.5,101.001 94.5,100 					"></polygon>
					<polygon style="fill:#3F3F3F;" points="137,144.5 136,144.5 94.5,103 94.5,102 					"></polygon>
					<polygon style="fill:#3F3F3F;" points="135,144.5 134,144.5 94.5,105.001 94.5,104 					"></polygon>
					<polygon style="fill:#3F3F3F;" points="133,144.5 132,144.5 94.5,107 94.5,106 					"></polygon>
					<polygon style="fill:#3F3F3F;" points="131,144.5 130,144.5 94.5,109 94.5,108 					"></polygon>
					<polygon style="fill:#3F3F3F;" points="129,144.5 128,144.5 94.5,111 94.5,110 					"></polygon>
					<polygon style="fill:#3F3F3F;" points="127,144.5 126,144.5 94.5,113 94.5,112 					"></polygon>
					<polygon style="fill:#3F3F3F;" points="125,144.5 124,144.5 94.5,115 94.5,114 					"></polygon>
					<polygon style="fill:#3F3F3F;" points="123,144.5 122,144.5 94.5,117 94.5,116 					"></polygon>
					<polygon style="fill:#3F3F3F;" points="121,144.5 120,144.5 94.5,119 94.5,118 					"></polygon>
					<polygon style="fill:#3F3F3F;" points="119,144.5 118,144.5 94.5,121 94.5,120 					"></polygon>
				</g>
				<g>
					<polygon style="fill:#3F3F3F;" points="117,144.5 116,144.5 94.5,123 94.5,122 					"></polygon>
					<polygon style="fill:#3F3F3F;" points="115,144.5 114,144.5 94.5,125 94.5,124 					"></polygon>
					<polygon style="fill:#3F3F3F;" points="113,144.5 112,144.5 94.5,127 94.5,126 					"></polygon>
					<polygon style="fill:#3F3F3F;" points="111,144.5 110,144.5 94.5,129 94.5,128 					"></polygon>
					<polygon style="fill:#3F3F3F;" points="109,144.5 108,144.5 94.5,131 94.5,130 					"></polygon>
					<polygon style="fill:#3F3F3F;" points="107,144.5 106,144.5 94.5,133 94.5,131.999 					"></polygon>
					<polygon style="fill:#3F3F3F;" points="105,144.5 104,144.5 94.5,135 94.5,134 					"></polygon>
					<polygon style="fill:#3F3F3F;" points="103.001,144.5 102,144.5 94.5,137 94.5,136 					"></polygon>
					<polygon style="fill:#3F3F3F;" points="101,144.5 100,144.5 94.5,139 94.5,138 					"></polygon>
					<polygon style="fill:#3F3F3F;" points="99.001,144.5 98,144.5 94.5,141 94.5,139.999 					"></polygon>
					<polygon style="fill:#3F3F3F;" points="97,144.5 96,144.5 94.5,143 94.5,142 					"></polygon>
					<polygon style="fill:#3F3F3F;" points="95.001,144.5 94.5,144.5 94.5,143.999 					"></polygon>
				</g>
			</g>
		</g>
		<rect x="136.25" y="94.5" style="fill:#FFFFFF;" width="8.25" height="3.08"></rect>
		<rect x="136.25" y="117.79" style="fill:#FFFFFF;" width="8.25" height="7.821"></rect>
		<rect x="114.461" y="94.5" style="fill:#FFFFFF;" width="3.08" height="3.08"></rect>
		<rect x="114.461" y="117.79" style="fill:#FFFFFF;" width="3.08" height="7.821"></rect>
	</g>
</g></g></pattern><pattern id="cpattern019" patternUnits="userSpaceOnUse" x="0" y="0" width="50" height="50"><g transform="translate(-94.5,-94.5), scale(1,1)"><g id="019">
	<g>
		<rect x="94.5" y="94.5" style="fill:#3F3F3F;" width="50" height="50"></rect>
		<g>

				<path style="fill:#3F3F3F;stroke:#666666;stroke-width:2.4066;stroke-linecap:round;stroke-linejoin:round;stroke-miterlimit:10;" d="
				M108.108,106.499l-4.823,4.823c-2.663,2.663-2.663,6.979,0,9.643s6.98,2.664,9.643,0l4.822-4.822L108.108,106.499z"></path>

				<path style="fill:#FFFFFF;stroke:#C7D9E8;stroke-width:2.4066;stroke-linecap:round;stroke-linejoin:round;stroke-miterlimit:10;" d="
				M122.715,111.178c2.663-2.663,2.663-6.979-0.001-9.644c-2.661-2.663-6.979-2.663-9.642,0l-4.964,4.964l9.643,9.643
				L122.715,111.178z"></path>
		</g>
		<g>

				<circle style="fill:#FFFFFE;stroke:#C7D9E7;stroke-width:2.4066;stroke-linecap:round;stroke-linejoin:round;stroke-miterlimit:10;" cx="132.125" cy="131.328" r="6.125"></circle>

				<ellipse style="fill:#FFFFFE;stroke:#C7D9E7;stroke-width:2.2892;stroke-linecap:round;stroke-linejoin:round;stroke-miterlimit:10;" cx="132.125" cy="130.542" rx="6.125" ry="5.542"></ellipse>

				<line style="fill:none;stroke:#C7D9E7;stroke-width:2.4066;stroke-linecap:round;stroke-linejoin:round;stroke-miterlimit:10;" x1="126.334" y1="133.167" x2="137.834" y2="128.917"></line>
		</g>
	</g>
</g></g></pattern><pattern id="cpattern020" patternUnits="userSpaceOnUse" x="0" y="0" width="50" height="50"><g transform="translate(-94.5,-94.5), scale(1,1)"><g id="020">
	<g>
		<g>
			<path style="fill:#3F3F3F;" d="M131.844,94.5c0.18,1.511-0.058,2.761-0.396,3.682c-0.72,1.94-2.226,3.511-4.288,4.533v0.652
				c0,2.103-1.723,3.825-3.833,3.825c-0.576,0-1.106-0.133-1.599-0.36v-2.735c-0.099-0.084-0.222-0.132-0.354-0.132
				s-0.246,0.046-0.34,0.123v2.773c-0.478,0.208-0.995,0.331-1.543,0.331c-0.568,0-1.107-0.133-1.59-0.36v-2.735
				c-0.096-0.086-0.218-0.132-0.359-0.132c-0.124,0-0.237,0.036-0.332,0.112v2.784c-0.473,0.208-0.994,0.331-1.542,0.331
				c-2.11,0-3.833-1.723-3.833-3.825v-0.652c-2.063-1.022-3.567-2.593-4.277-4.533c-0.344-0.922-0.58-2.171-0.404-3.682H94.5v13.159
				c0.165-0.007,0.329-0.018,0.494-0.018c0.104,0,0.198,0,0.313,0.011c1.438,0.037,2.848,0.358,4.183,0.936
				c2.564,1.099,4.798,3.133,6.379,5.868c2.025,3.493,1.693,6.219,1.079,7.894c-0.72,1.94-2.225,3.512-4.288,4.533v0.652
				c0,2.104-1.722,3.824-3.833,3.824c-0.577,0-1.107-0.133-1.599-0.359v-2.734c-0.095-0.084-0.218-0.133-0.351-0.133
				s-0.246,0.047-0.341,0.123v2.773c-0.473,0.207-0.994,0.33-1.542,0.33c-0.17,0-0.33-0.033-0.494-0.06v13.2h50v-50H131.844z"></path>
			<path style="fill:#FFFFFF;" d="M96.537,131.027v-2.772c0.095-0.077,0.208-0.123,0.341-0.123c0.132,0,0.256,0.048,0.351,0.132
				v2.735c0.491,0.228,1.021,0.36,1.599,0.36c2.11,0,3.833-1.727,3.833-3.825v-0.652c2.063-1.022,3.568-2.593,4.288-4.532
				c0.615-1.676,0.946-4.397-1.079-7.895c-1.581-2.735-3.815-4.77-6.379-5.868c-1.334-0.577-2.745-0.898-4.183-0.936
				c-0.114-0.011-0.208-0.011-0.313-0.011c-0.166,0-0.33,0.011-0.494,0.018v13.177c0.288-0.069,0.608,0.021,0.778,0.319l1.325,2.291
				c0.274,0.474-0.066,1.068-0.615,1.068H94.5v6.784c0.164,0.022,0.324,0.06,0.494,0.06
				C95.543,131.359,96.063,131.236,96.537,131.027z M96.631,118.25c-0.184-1.385,0.14-2.789,1.131-3.546
				c0.018-0.014,0.035-0.028,0.053-0.042c0.131-0.094,0.273-0.174,0.428-0.245c0.034-0.015,0.069-0.028,0.104-0.043
				c0.332-0.134,0.695-0.231,1.132-0.24c1.694,0,3.578,2.11,3.975,3.729c0.521,2.101-1.382,4.175-3.53,3.71
				C98.192,121.193,96.868,120.039,96.631,118.25z"></path>
			<path style="fill:#3F3F3F;" d="M95.988,124.516c0.548,0,0.889-0.596,0.615-1.065l-1.325-2.291
				c-0.17-0.302-0.49-0.394-0.778-0.319v3.684h1.488V124.516z"></path>
			<path style="fill:#3F3F3F;" d="M99.925,121.572c2.148,0.465,4.051-1.609,3.53-3.71c-0.397-1.618-2.281-3.729-3.975-3.729
				c-0.437,0.009-0.801,0.106-1.132,0.24c-0.035,0.015-0.07,0.028-0.104,0.043c-0.155,0.071-0.297,0.151-0.428,0.245
				c-0.018,0.014-0.035,0.028-0.053,0.042c-0.991,0.757-1.314,2.161-1.131,3.546C96.868,120.039,98.192,121.193,99.925,121.572z"></path>
			<path style="fill:#FFFFFF;" d="M107.559,98.182c0.71,1.94,2.215,3.511,4.277,4.533v0.652c0,2.103,1.723,3.825,3.833,3.825
				c0.549,0,1.069-0.123,1.542-0.331v-2.784c0.095-0.076,0.208-0.112,0.332-0.112c0.142,0,0.264,0.046,0.359,0.132v2.735
				c0.482,0.228,1.021,0.36,1.59,0.36c0.549,0,1.07-0.123,1.543-0.331v-2.773c0.094-0.077,0.207-0.123,0.34-0.123
				s0.256,0.048,0.352,0.132v2.735c0.49,0.228,1.021,0.36,1.602,0.36c2.107,0,3.833-1.723,3.833-3.825v-0.652
				c2.063-1.022,3.565-2.593,4.284-4.533c0.343-0.921,0.576-2.171,0.396-3.682h-3.805c-0.059,1.788-1.743,3.311-3.614,2.906
				c-1.592-0.348-2.827-1.358-3.204-2.906h-4.126c-0.375,1.548-1.604,2.558-3.204,2.906c-1.872,0.405-3.549-1.117-3.605-2.906
				h-3.131C106.979,96.011,107.215,97.26,107.559,98.182z M117.222,99.28l1.325-2.291c0.275-0.482,0.956-0.482,1.23,0l1.327,2.291
				c0.273,0.474-0.063,1.069-0.615,1.069h-2.647C117.288,100.349,116.947,99.753,117.222,99.28z"></path>
			<path d="M117.837,100.349h2.649c0.55,0,0.89-0.596,0.617-1.069l-1.331-2.291c-0.274-0.482-0.955-0.482-1.23,0l-1.325,2.291
				C116.947,99.753,117.288,100.349,117.837,100.349z"></path>
			<path d="M113.891,97.406c1.601-0.348,2.83-1.358,3.204-2.906h-6.809C110.342,96.289,112.019,97.811,113.891,97.406z"></path>
			<path d="M124.425,97.406c1.871,0.405,3.556-1.118,3.614-2.906h-6.818C121.598,96.048,122.833,97.058,124.425,97.406z"></path>
		</g>
		<path style="fill:#FFFFFF;" d="M110.37,143.695c0.397-1.617,2.271-3.729,3.975-3.729c0.436,0.011,0.8,0.107,1.13,0.242
			c0.036,0.015,0.071,0.026,0.105,0.043c0.154,0.07,0.297,0.151,0.428,0.246c0.019,0.014,0.036,0.028,0.054,0.043
			c0.987,0.758,1.313,2.16,1.123,3.543c-0.019,0.146-0.057,0.278-0.089,0.416h4.126c-0.033-0.138-0.07-0.271-0.094-0.416
			c-0.186-1.385,0.145-2.789,1.135-3.547c0.018-0.015,0.031-0.027,0.053-0.041c0.131-0.095,0.271-0.174,0.429-0.246
			c0.034-0.015,0.069-0.026,0.104-0.043c0.332-0.133,0.691-0.229,1.133-0.24c1.689,0,3.576,2.111,3.975,3.729
			c0.066,0.271,0.093,0.541,0.084,0.805h3.805c-0.146-1.234-0.563-2.641-1.475-4.211c-1.582-2.736-3.814-4.77-6.38-5.869
			c-1.335-0.576-2.745-0.898-4.183-0.936c-0.114-0.01-0.209-0.01-0.313-0.01c-4.334,0-8.395,2.545-10.884,6.813
			c-0.898,1.568-1.312,2.979-1.455,4.211h3.131C110.277,144.236,110.303,143.967,110.37,143.695z"></path>
		<path style="fill:#FFFFFF;" d="M143.338,124.516c-0.549,0-0.891-0.596-0.615-1.065l1.324-2.291
			c0.105-0.188,0.273-0.276,0.453-0.319v-13.18c-4.146,0.186-7.996,2.691-10.391,6.796c-1.996,3.493-1.674,6.218-1.051,7.894
			c0.711,1.94,2.215,3.512,4.274,4.533v0.652c0,2.104,1.728,3.824,3.833,3.824c0.549,0,1.066-0.123,1.543-0.33v-2.784
			c0.098-0.076,0.208-0.112,0.332-0.112c0.145,0,0.268,0.047,0.355,0.133V131c0.34,0.159,0.711,0.25,1.1,0.305v-6.787h-1.161
			L143.338,124.516L143.338,124.516z M139.391,121.572c-2.146,0.465-4.041-1.608-3.52-3.71c0.396-1.618,2.271-3.729,3.975-3.729
			c0.438,0.009,0.801,0.106,1.131,0.241c0.035,0.015,0.07,0.027,0.104,0.044c0.153,0.069,0.297,0.151,0.428,0.246
			c0.021,0.014,0.036,0.028,0.056,0.042c0.985,0.758,1.313,2.16,1.123,3.544C142.447,120.039,141.133,121.193,139.391,121.572z"></path>
	</g>
</g></g></pattern><pattern id="cpattern_hair1_r" patternUnits="userSpaceOnUse" x="0" y="0" width="50" height="50"><g transform="translate(-94.5,-94.5), scale(1,1)"><g id="001">
	<g>
		<rect x="94.5" y="94.5" style="fill:#3F3F3F;" width="50" height="50"></rect>
		<circle style="fill:#FFFFFF;" cx="119.5" cy="119.5" r="17.5"></circle>
	</g>
</g></g></pattern><pattern id="cpattern_hair5" patternUnits="userSpaceOnUse" x="0" y="0" width="50" height="50"><g transform="translate(-94.5,-94.5), scale(1,1)"><g id="001">
	<g>
		<rect x="94.5" y="94.5" style="fill:#3F3F3F;" width="50" height="50"></rect>
		<circle style="fill:#FFFFFF;" cx="119.5" cy="119.5" r="17.5"></circle>
	</g>
</g></g></pattern></defs></svg>